<svg width="9" height="8" viewBox="0 0 9 8" fill="none" xmlns="http://www.w3.org/2000/svg">
<path d="M8.66638 4.66669L1.99971 4.66669L4.19505 6.86202L3.25238 7.80469L0.390382 4.94269C0.14042 4.69265 -3.01706e-07 4.35357 -3.32615e-07 4.00002C-3.63523e-07 3.64647 0.14042 3.30739 0.390381 3.05735L3.25238 0.195353L4.19505 1.13802L1.99971 3.33335L8.66638 3.33335L8.66638 4.66669Z" fill="#F6921E"/>
<path d="M8.66638 4.66669L1.99971 4.66669L4.19505 6.86202L3.25238 7.80469L0.390382 4.94269C0.14042 4.69265 -3.01706e-07 4.35357 -3.32615e-07 4.00002C-3.63523e-07 3.64647 0.14042 3.30739 0.390381 3.05735L3.25238 0.195353L4.19505 1.13802L1.99971 3.33335L8.66638 3.33335L8.66638 4.66669Z" fill="black" fill-opacity="0.35"/>
</svg>
