<svg width="9" height="8" viewBox="0 0 9 8" fill="none" xmlns="http://www.w3.org/2000/svg">
<path d="M0.333618 4.66669L7.00029 4.66669L4.80495 6.86202L5.74762 7.80469L8.60962 4.94269C8.85958 4.69265 9 4.35357 9 4.00002C9 3.64647 8.85958 3.30739 8.60962 3.05735L5.74762 0.195353L4.80495 1.13802L7.00029 3.33335L0.333619 3.33335L0.333618 4.66669Z" fill="#F6921E"/>
<path d="M0.333618 4.66669L7.00029 4.66669L4.80495 6.86202L5.74762 7.80469L8.60962 4.94269C8.85958 4.69265 9 4.35357 9 4.00002C9 3.64647 8.85958 3.30739 8.60962 3.05735L5.74762 0.195353L4.80495 1.13802L7.00029 3.33335L0.333619 3.33335L0.333618 4.66669Z" fill="black" fill-opacity="0.35"/>
</svg>
