<svg width="17" height="16" viewBox="0 0 17 16" fill="none" xmlns="http://www.w3.org/2000/svg">
<g clip-path="url(#clip0_4106_1508)">
<path d="M8.30481 16.005L7.84009 15.6067C7.19944 15.0702 1.60547 10.2391 1.60547 6.7052C1.60547 3.00527 4.60487 0.00585938 8.30481 0.00585938C12.0047 0.00585938 15.0042 3.00527 15.0042 6.7052C15.0042 10.2391 9.41019 15.0703 8.77219 15.6093L8.30481 16.005ZM8.30481 1.45445C5.40628 1.45773 3.05737 3.80664 3.05409 6.70517C3.05409 8.92523 6.49572 12.4717 8.30481 14.095C10.1139 12.4711 13.5555 8.92255 13.5555 6.70517C13.5522 3.80664 11.2034 1.45777 8.30481 1.45445Z" fill="#727272"/>
<path d="M8.304 9.35995C6.83737 9.35995 5.64844 8.17102 5.64844 6.70439C5.64844 5.23777 6.83737 4.04883 8.304 4.04883C9.77063 4.04883 10.9596 5.23777 10.9596 6.70439C10.9596 8.17102 9.77066 9.35995 8.304 9.35995ZM8.304 5.37658C7.57069 5.37658 6.97622 5.97105 6.97622 6.70436C6.97622 7.43767 7.57069 8.03214 8.304 8.03214C9.03731 8.03214 9.63178 7.43767 9.63178 6.70436C9.63178 5.97105 9.03734 5.37658 8.304 5.37658Z" fill="#727272"/>
</g>
<defs>
<clipPath id="clip0_4106_1508">
<rect width="16" height="16" fill="white" transform="translate(0.332031)"/>
</clipPath>
</defs>
</svg>
