<svg width="11" height="13" viewBox="0 0 11 13" fill="none" xmlns="http://www.w3.org/2000/svg">
<path d="M5.65229 0.371094C2.27896 0.371094 0.515625 2.51776 0.515625 4.89443C0.515625 6.04443 1.12896 7.19443 2.12562 7.80776C2.43229 7.96109 2.35562 7.80776 2.58562 6.88776C2.58562 6.81109 2.58562 6.73443 2.50896 6.65776C1.12896 4.97109 2.27896 1.67443 5.49896 1.67443C10.1756 1.67443 9.25562 8.11443 6.34229 8.11443C5.72896 8.19109 5.19229 7.73109 5.19229 7.11776V6.81109C5.49896 5.96776 5.72896 5.20109 5.80562 4.35776C5.80562 2.74776 3.42896 2.97776 3.42896 5.12443C3.42896 5.50776 3.50562 5.89109 3.65896 6.19776C3.65896 6.19776 2.89229 9.34109 2.73896 9.87776C2.58562 10.7978 2.66229 11.7178 2.81562 12.5611C2.73896 12.6378 2.81562 12.6378 2.81562 12.6378H2.89229C3.42896 11.8711 3.88896 11.1044 4.19563 10.2611C4.27229 9.87776 4.65562 8.49776 4.65562 8.49776C5.03896 9.03443 5.72896 9.34109 6.41896 9.34109C8.79562 9.34109 10.4823 7.27109 10.4823 4.74109C10.4823 2.21109 8.33562 0.371094 5.65229 0.371094Z" fill="white"/>
</svg>
