<svg width="11" height="13" viewBox="0 0 11 13" fill="none" xmlns="http://www.w3.org/2000/svg">
<path d="M5.75543 0.759805C6.39767 0.75 7.03499 0.754903 7.67232 0.75C7.71154 1.50009 7.98118 2.26488 8.53027 2.79436C9.07935 3.33854 9.85395 3.58857 10.6089 3.67191V5.64763C9.90298 5.62312 9.19211 5.47604 8.54988 5.17208C8.27043 5.04462 8.0106 4.88283 7.75567 4.71615C7.75076 6.14769 7.76057 7.57923 7.74586 9.00586C7.70664 9.69222 7.48112 10.3737 7.08402 10.9375C6.44179 11.8787 5.32891 12.4916 4.18662 12.5112C3.48556 12.5504 2.7845 12.3592 2.18639 12.0062C1.19608 11.4228 0.499919 10.3541 0.396966 9.20687C0.387161 8.96174 0.382258 8.71661 0.392063 8.47639C0.480309 7.54491 0.941147 6.65265 1.65692 6.04473C2.47074 5.33877 3.60812 5.0005 4.67197 5.2015C4.68178 5.92707 4.65236 6.65265 4.65236 7.37822C4.16701 7.22134 3.59832 7.26547 3.1718 7.55962C2.86294 7.76062 2.62762 8.06948 2.50505 8.41756C2.4021 8.66759 2.43152 8.94213 2.43642 9.20687C2.55408 10.0109 3.32868 10.6874 4.15231 10.6139C4.70139 10.609 5.22596 10.2903 5.51031 9.82459C5.60346 9.6628 5.70641 9.49612 5.71131 9.30492C5.76034 8.42737 5.74073 7.55471 5.74563 6.67716C5.75053 4.70144 5.74073 2.73062 5.75543 0.759805Z" fill="white"/>
</svg>
