<svg width="17" height="17" viewBox="0 0 17 17" fill="none" xmlns="http://www.w3.org/2000/svg">
<g id="Frame">
<path id="Vector" d="M8.49974 12.8779H8.48696C8.44735 12.8779 4.48432 12.8702 3.48446 12.5987C2.93465 12.4506 2.50527 12.021 2.35746 11.4711C2.17767 10.4568 2.09085 9.42808 2.09807 8.398C2.09343 7.3662 2.1826 6.33612 2.36449 5.32048C2.51636 4.77008 2.94385 4.33847 3.49277 4.18134C4.46516 3.92578 8.31893 3.92578 8.48249 3.92578H8.49591C8.53616 3.92578 12.5094 3.93345 13.499 4.20498C14.0477 4.35384 14.4762 4.7826 14.6248 5.33134C14.8103 6.34943 14.8974 7.383 14.8848 8.41781C14.8893 9.44834 14.7999 10.4771 14.6177 11.4915C14.468 12.0407 14.0384 12.4694 13.4888 12.6179C12.5177 12.8753 8.66329 12.8779 8.49974 12.8779ZM7.22196 6.48453L7.21877 10.3179L10.5487 8.4012L7.22196 6.48453Z" fill="white"/>
</g>
</svg>
