<svg width="20" height="8" viewBox="0 0 20 8" fill="none" xmlns="http://www.w3.org/2000/svg">
<path d="M0.479324 7.88281V6.88863L4.13165 1.60374L4.12118 1.58281H0.646766V0.45258H5.7956V1.42584L2.08049 6.72118L2.10142 6.75258H5.81653V7.88281H0.479324ZM8.58496 7.96653C7.17217 7.96653 6.1152 6.93049 6.1152 5.35025C6.1152 3.81188 7.17217 2.70258 8.5745 2.70258C9.22334 2.70258 9.78845 2.94328 10.1547 3.40374L10.1757 3.39328V2.77584H11.3478V7.88281H10.228V7.21305L10.2071 7.20258C9.84078 7.69444 9.29659 7.96653 8.58496 7.96653ZM8.77334 6.89909C9.56869 6.89909 10.228 6.28165 10.228 5.36072C10.228 4.45025 9.61055 3.75956 8.77334 3.75956C7.95706 3.75956 7.30822 4.377 7.30822 5.36072C7.30822 6.26072 7.90473 6.89909 8.77334 6.89909ZM12.3768 7.88281V0.180487H13.5489V7.88281H12.3768ZM17.0072 7.96653C15.3955 7.96653 14.3281 6.8363 14.3281 5.33979C14.3281 3.83281 15.3955 2.70258 17.0072 2.70258C18.5769 2.70258 19.6862 3.77002 19.6862 5.33979C19.6862 6.88863 18.5769 7.96653 17.0072 7.96653ZM17.0072 6.89909C17.8339 6.89909 18.4932 6.26072 18.4932 5.33979C18.4932 4.39793 17.8444 3.75956 17.0072 3.75956C16.1176 3.75956 15.5211 4.45025 15.5211 5.33979C15.5211 6.20839 16.1281 6.89909 17.0072 6.89909Z" fill="white"/>
</svg>
