<svg width="16" height="7" viewBox="0 0 16 7" fill="none" xmlns="http://www.w3.org/2000/svg">
<path d="M0.383459 6.9043V6.10895L3.30532 1.88104L3.29695 1.8643H0.517413V0.96011H4.63648V1.73872L1.66439 5.97499L1.68113 6.00011H4.65323V6.9043H0.383459ZM6.86797 6.97127C5.73774 6.97127 4.89216 6.14244 4.89216 4.87825C4.89216 3.64755 5.73774 2.76011 6.8596 2.76011C7.37867 2.76011 7.83076 2.95267 8.12379 3.32104L8.14053 3.31267V2.81872H9.07821V6.9043H8.18239V6.36848L8.16565 6.36011C7.87262 6.7536 7.43727 6.97127 6.86797 6.97127ZM7.01867 6.11732C7.65495 6.11732 8.18239 5.62337 8.18239 4.88662C8.18239 4.15825 7.68844 3.60569 7.01867 3.60569C6.36565 3.60569 5.84658 4.09965 5.84658 4.88662C5.84658 5.60662 6.32379 6.11732 7.01867 6.11732ZM9.90142 6.9043V0.742436H10.8391V6.9043H9.90142ZM13.6057 6.97127C12.3164 6.97127 11.4625 6.06709 11.4625 4.86988C11.4625 3.6643 12.3164 2.76011 13.6057 2.76011C14.8616 2.76011 15.749 3.61406 15.749 4.86988C15.749 6.10895 14.8616 6.97127 13.6057 6.97127ZM13.6057 6.11732C14.2671 6.11732 14.7946 5.60662 14.7946 4.86988C14.7946 4.11639 14.2755 3.60569 13.6057 3.60569C12.8941 3.60569 12.4169 4.15825 12.4169 4.86988C12.4169 5.56476 12.9025 6.11732 13.6057 6.11732Z" fill="#727272"/>
</svg>
