<svg width="64" height="42" viewBox="0 0 64 42" fill="none" xmlns="http://www.w3.org/2000/svg">
<g id="Group">
<path id="Layer 33" d="M17.0469 30.5708C17.0469 29.2999 16.67 28.0577 15.964 27.001C15.258 25.9444 14.2545 25.1208 13.0804 24.6345C11.9063 24.1482 10.6144 24.0209 9.368 24.2689C8.1216 24.5168 6.97671 25.1287 6.0781 26.0273C5.1795 26.9259 4.56754 28.0708 4.31962 29.3172C4.0717 30.5636 4.19894 31.8556 4.68526 33.0296C5.17158 34.2037 5.99514 35.2072 7.05178 35.9133C8.10843 36.6193 9.35071 36.9961 10.6215 36.9961C12.325 36.9942 13.9582 36.3166 15.1628 35.112C16.3674 33.9075 17.0449 32.2743 17.0469 30.5708ZM6.29424 30.5708C6.29424 29.7149 6.54803 28.8783 7.02352 28.1666C7.49901 27.455 8.17483 26.9004 8.96554 26.5729C9.75625 26.2453 10.6263 26.1597 11.4657 26.3266C12.3051 26.4936 13.0762 26.9057 13.6814 27.5109C14.2866 28.1161 14.6987 28.8871 14.8657 29.7265C15.0326 30.566 14.9469 31.436 14.6194 32.2267C14.2919 33.0174 13.7373 33.6933 13.0256 34.1688C12.314 34.6443 11.4774 34.8981 10.6215 34.8981C9.47428 34.8967 8.37443 34.4403 7.5632 33.6291C6.75198 32.8179 6.29563 31.718 6.29424 30.5708ZM20.1972 17.8564C21.468 17.8564 22.7103 17.4795 23.767 16.7735C24.8237 16.0674 25.6472 15.0638 26.1335 13.8897C26.6198 12.7155 26.747 11.4235 26.499 10.1771C26.251 8.93069 25.6389 7.7858 24.7402 6.88724C23.8415 5.98868 22.6965 5.3768 21.45 5.129C20.2036 4.88119 18.9116 5.00859 17.7375 5.49507C16.5635 5.98155 15.5601 6.80527 14.8542 7.86205C14.1482 8.91884 13.7716 10.1612 13.7718 11.4321C13.7737 13.1356 14.4513 14.7688 15.6559 15.9734C16.8605 17.1779 18.4936 17.8545 20.1972 17.8564ZM20.1972 7.10375C21.053 7.10375 21.8896 7.35751 22.6012 7.83295C23.3128 8.30839 23.8674 8.98416 24.195 9.77481C24.5225 10.5655 24.6083 11.4355 24.4414 12.2749C24.2745 13.1142 23.8625 13.8853 23.2574 14.4905C22.6523 15.0957 21.8814 15.508 21.042 15.675C20.2027 15.8421 19.3326 15.7566 18.5419 15.4292C17.7512 15.1019 17.0753 14.5474 16.5997 13.8359C16.124 13.1244 15.8701 12.2879 15.8699 11.4321C15.8713 10.2848 16.3276 9.18498 17.1388 8.37376C17.9501 7.56254 19.0499 7.10513 20.1972 7.10375ZM53.3835 19.9545H50.1116C51.9101 18.6294 53.2442 16.77 53.9234 14.6417C54.6025 12.5134 54.5921 10.225 53.8935 8.10304C53.1949 5.98106 51.8439 4.13395 50.0333 2.82531C48.2227 1.51667 46.045 0.813381 43.811 0.815802L20.1972 0.810557C17.9622 0.807487 15.7834 1.51037 13.9717 2.81892C12.1599 4.12747 10.8077 5.97483 10.108 8.0974C9.40828 10.22 9.39685 12.5093 10.0753 14.6388C10.7538 16.7682 12.0875 18.629 13.8861 19.9555C13.8861 19.9555 10.6624 19.9492 10.6215 19.9492C7.80452 19.9492 5.1029 21.0683 3.11097 23.0602C1.11905 25.0521 0 27.7538 0 30.5708C0 33.3878 1.11905 36.0894 3.11097 38.0813C5.1029 40.0732 7.80452 41.1923 10.6215 41.1923L53.3835 41.187C56.1991 41.187 58.8994 40.0685 60.8904 38.0776C62.8813 36.0867 63.9998 33.3864 63.9998 30.5708C63.9998 27.7551 62.8813 25.0549 60.8904 23.0639C58.8994 21.073 56.1991 19.9545 53.3835 19.9545ZM29.7696 39.0942C28.0839 39.0942 26.4359 38.5943 25.0343 37.6577C23.6326 36.7212 22.5401 35.39 21.895 33.8325C21.2499 32.2751 21.0811 30.5613 21.41 28.9079C21.7389 27.2545 22.5506 25.7358 23.7427 24.5438C24.9347 23.3517 26.4534 22.54 28.1068 22.2111C29.7602 21.8822 31.474 22.051 33.0314 22.6961C34.5889 23.3412 35.9201 24.4337 36.8566 25.8354C37.7932 27.2371 38.2931 28.885 38.2931 30.5708C38.2906 32.8306 37.3918 34.9971 35.7939 36.595C34.196 38.1929 32.0294 39.0917 29.7696 39.0942ZM43.811 2.91283C44.9297 2.91283 46.0373 3.13316 47.0708 3.56124C48.1043 3.98932 49.0433 4.61677 49.8343 5.40775C50.6253 6.19874 51.2528 7.13778 51.6808 8.17126C52.1089 9.20474 52.3292 10.3124 52.3292 11.431C52.3292 12.5497 52.1089 13.6573 51.6808 14.6908C51.2528 15.7243 50.6253 16.6633 49.8343 17.4543C49.0433 18.2453 48.1043 18.8727 47.0708 19.3008C46.0373 19.7289 44.9297 19.9492 43.811 19.9492H26.5166C27.8509 18.9656 28.9355 17.6822 29.6829 16.2025C30.4302 14.7228 30.8195 13.0882 30.8193 11.4305C30.8191 9.77278 30.4294 8.13829 29.6817 6.65879C28.9339 5.17929 27.8491 3.89616 26.5145 2.91283H43.811ZM11.6737 11.431C11.6739 9.7453 12.174 8.09748 13.1107 6.69595C14.0474 5.29441 15.3786 4.2021 16.9361 3.55714C18.4936 2.91218 20.2073 2.74354 21.8606 3.07254C23.514 3.40154 25.0326 4.2134 26.2245 5.40547C27.4164 6.59753 28.2281 8.11627 28.5569 9.76963C28.8857 11.423 28.7168 13.1367 28.0717 14.6941C27.4265 16.2515 26.3341 17.5826 24.9324 18.5191C23.5308 19.4557 21.8829 19.9555 20.1972 19.9555C17.9374 19.953 15.7708 19.0542 14.1729 17.4563C12.575 15.8584 11.6762 13.6908 11.6737 11.431ZM23.4502 22.0547C22.0613 23.0875 20.9445 24.4426 20.1961 26.0032C19.4474 24.4425 18.3302 23.0873 16.9409 22.0547H23.4502ZM2.09808 30.5729C2.09787 28.887 2.59759 27.239 3.53403 25.8372C4.47047 24.4354 5.80158 23.3428 7.35902 22.6975C8.91646 22.0522 10.6303 21.8833 12.2837 22.212C13.9372 22.5408 15.456 23.3525 16.6481 24.5445C17.8403 25.7364 18.6522 27.2552 18.9811 28.9086C19.3101 30.562 19.1414 32.2758 18.4963 33.8333C17.8512 35.3909 16.7587 36.7221 15.357 37.6587C13.9553 38.5953 12.3073 39.0953 10.6215 39.0953C8.36173 39.0928 6.19521 38.194 4.5973 36.596C2.99938 34.9981 2.10058 32.8326 2.09808 30.5729ZM20.1961 35.1404C20.945 36.7016 22.0626 38.0571 23.4523 39.09H16.9388C18.329 38.0573 19.4469 36.7017 20.1961 35.1404ZM53.3835 39.09H36.087C37.4215 38.1067 38.5064 36.8236 39.2542 35.3441C40.0019 33.8645 40.3916 32.2301 40.3918 30.5723C40.392 28.9146 40.0027 27.28 39.2553 25.8003C38.508 24.3207 37.4234 23.0373 36.0891 22.0536H53.3835C55.6427 22.0536 57.8093 22.9511 59.4068 24.5485C61.0043 26.146 61.9017 28.3126 61.9017 30.5718C61.9017 32.831 61.0043 34.9976 59.4068 36.5951C57.8093 38.1926 55.6427 39.09 53.3835 39.09ZM29.7696 24.1464C28.4988 24.1464 27.2565 24.5233 26.1999 25.2293C25.1433 25.9353 24.3197 26.9388 23.8334 28.1129C23.3471 29.287 23.2198 30.5789 23.4677 31.8253C23.7157 33.0717 24.3276 34.2166 25.2262 35.1152C26.1248 36.0138 27.2697 36.6258 28.5161 36.8737C29.7625 37.1216 31.0544 36.9944 32.2285 36.5081C33.4026 36.0218 34.4061 35.1982 35.1121 34.1416C35.8182 33.0849 36.195 31.8426 36.195 30.5718C36.1931 28.8683 35.5155 27.2351 34.3109 26.0305C33.1064 24.826 31.4732 24.1484 29.7696 24.1464ZM29.7696 34.8991C28.9138 34.8991 28.0772 34.6453 27.3655 34.1698C26.6539 33.6943 26.0993 33.0185 25.7718 32.2278C25.4442 31.4371 25.3585 30.567 25.5255 29.7276C25.6925 28.8882 26.1046 28.1171 26.7098 27.512C27.315 26.9068 28.086 26.4946 28.9254 26.3277C29.7648 26.1607 30.6349 26.2464 31.4256 26.5739C32.2163 26.9014 32.8922 27.4561 33.3677 28.1677C33.8431 28.8793 34.0969 29.716 34.0969 30.5718C34.0955 31.7191 33.6392 32.8189 32.828 33.6301C32.0167 34.4414 30.9169 34.8977 29.7696 34.8991Z" fill="url(#paint0_linear_3939_1674)"/>
</g>
<defs>
<linearGradient id="paint0_linear_3939_1674" x1="61.5013" y1="0.785951" x2="23.4129" y2="57.326" gradientUnits="userSpaceOnUse">
<stop stop-color="#713D00"/>
<stop offset="1" stop-color="#FF8900"/>
</linearGradient>
</defs>
</svg>
