<svg width="64" height="64" viewBox="0 0 64 64" fill="none" xmlns="http://www.w3.org/2000/svg">
<g id="Group">
<path id="Union" fill-rule="evenodd" clip-rule="evenodd" d="M53.505 12.8H60.7999C62.5673 12.8 64 14.2327 63.9999 16.0001V18.1334C63.9999 19.9007 62.5672 21.3334 60.7999 21.3334H50.1332V25.6H58.6666C60.4339 25.6 61.8666 27.0328 61.8666 28.8V30.0628C62.4883 30.2826 63.027 30.6892 63.4089 31.2269C63.7907 31.7645 63.9972 32.4071 63.9999 33.0666V61.8666C63.9999 63.0447 63.0448 63.9999 61.8666 63.9999H36.2666C35.0885 63.9999 34.1333 63.0448 34.1333 61.8666V33.0666C34.136 32.4071 34.3425 31.7645 34.7243 31.2269C35.1062 30.6892 35.6449 30.2826 36.2666 30.0628V28.7999C36.2666 27.0326 37.6993 25.5999 39.4666 25.5999H48V21.3333H25.6V55.4666H26.6667C29.0231 55.4666 30.9333 57.3769 30.9333 59.7333V62.9332C30.9333 63.5224 30.4558 63.9999 29.8667 63.9999H6.40006C5.81094 63.9999 5.3334 63.5224 5.3334 62.9332V59.7333C5.3334 57.3769 7.24365 55.4666 9.60004 55.4666H10.6666V21.3333H3.19998C1.43271 21.3333 0 19.9006 0 18.1333V16C0 14.2327 1.43271 12.8 3.20008 12.8H3.74409L10.6667 3.89974V3.19998C10.6667 1.43271 12.0994 0 13.8667 0H22.4C24.1673 0 25.5999 1.43271 25.5999 3.20008V3.49872L53.505 12.8ZM44.8 55.4666V61.8666H53.3333V55.4666H44.8ZM55.4666 61.8666H61.8666L61.8667 33.0666C61.8667 32.4774 61.3891 31.9999 60.8 31.9999H37.3334C36.7443 31.9999 36.2667 32.4774 36.2667 33.0666V61.8666H42.6667V55.4666C42.6667 54.2885 43.6218 53.3333 44.8 53.3333H53.3333C54.5114 53.3333 55.4666 54.2884 55.4666 55.4666V61.8666ZM59.7333 29.8667V28.8C59.7333 28.2109 59.2557 27.7334 58.6666 27.7334H39.4666C38.8775 27.7334 38.4 28.2109 38.4 28.8V29.8667H59.7333ZM25.5999 12.8H46.7615L25.5999 5.74616V12.8ZM19.712 6.93329L23.4666 10.3755V3.49333L19.712 6.93329ZM14.4736 2.13332L18.1333 5.48695L21.793 2.13332H14.4736ZM12.8 10.3755L16.5547 6.93329L12.8 3.49333V10.3755ZM22.9546 12.8L18.1333 8.38185L13.312 12.8H22.9546ZM10.6667 12.7999V7.37595L6.44804 12.7999H10.6667ZM16.5547 27.2L12.8 23.7579V30.6422L16.5547 27.2ZM22.9546 33.0667L18.1333 28.6474L13.312 33.0667L18.1333 37.4859L22.9546 33.0667ZM16.5547 38.9334L12.8 35.4912V42.3756L16.5547 38.9334ZM22.9546 44.8L18.1333 40.3808L13.312 44.8L18.1333 49.2193L22.9546 44.8ZM12.8 54.1088L16.5547 50.6666L12.8 47.2246V54.1088ZM21.791 55.4666L18.1333 52.114L14.4758 55.4666H21.791ZM23.4666 47.2245L19.712 50.6666L23.4666 54.1087V47.2245ZM19.712 38.9333L23.4666 42.3755V35.4911L19.712 38.9333ZM19.712 27.1999L23.4666 30.6421V23.7577L19.712 27.1999ZM13.312 21.3333L18.1333 25.7525L22.9546 21.3333H13.312ZM28.8 61.8666V59.7333C28.8 58.5551 27.8448 57.5999 26.6666 57.5999H9.59994C8.42179 57.5999 7.46662 58.555 7.46662 59.7333V61.8666H28.8ZM60.7999 19.2C61.389 19.2 61.8666 18.7224 61.8666 18.1333V16C61.8666 15.4109 61.389 14.9333 60.7999 14.9333H3.19998C2.61085 14.9333 2.13332 15.4109 2.13332 16V18.1333C2.13332 18.7224 2.61085 19.2 3.19998 19.2H60.7999ZM40.5318 34.1328H45.8651C47.0432 34.1328 47.9984 35.0879 47.9984 36.2661V39.4661C47.9984 40.6443 47.0433 41.5994 45.8651 41.5994H40.5318C39.3536 41.5994 38.3984 40.6444 38.3984 39.4661V36.2661C38.3984 35.088 39.3535 34.1328 40.5318 34.1328ZM40.5317 36.2661V39.4661H45.865V36.2661H40.5317ZM52.265 34.1328H57.5983C58.7766 34.1328 59.7316 35.0879 59.7316 36.2661V39.4661C59.7316 40.6443 58.7766 41.5994 57.5983 41.5994H52.265C51.0869 41.5994 50.1317 40.6444 50.1317 39.4661V36.2661C50.1317 35.088 51.0868 34.1328 52.265 34.1328ZM52.265 36.2661V39.4661H57.5983V36.2661H52.265ZM40.5318 43.7327H45.8651C47.0432 43.7327 47.9984 44.6879 47.9984 45.8661V49.066C47.9984 50.2442 47.0433 51.1994 45.8651 51.1994H40.5318C39.3536 51.1994 38.3984 50.2443 38.3984 49.066V45.8661C38.3984 44.6879 39.3535 43.7327 40.5318 43.7327ZM40.5317 45.8662V49.0662H45.865V45.8662H40.5317ZM52.265 43.7327H57.5983C58.7766 43.7327 59.7316 44.6879 59.7316 45.8661V49.066C59.7316 50.2442 58.7766 51.1994 57.5983 51.1994H52.265C51.0869 51.1994 50.1317 50.2443 50.1317 49.066V45.8661C50.1317 44.6879 51.0868 43.7327 52.265 43.7327ZM52.265 45.8662V49.0662H57.5983V45.8662H52.265Z" fill="url(#paint0_linear_3939_1670)"/>
</g>
<defs>
<linearGradient id="paint0_linear_3939_1670" x1="61.5014" y1="-0.0389811" x2="-3.49632" y2="60.84" gradientUnits="userSpaceOnUse">
<stop stop-color="#713D00"/>
<stop offset="1" stop-color="#FF8900"/>
</linearGradient>
</defs>
</svg>
