<svg width="64" height="64" viewBox="0 0 64 64" fill="none" xmlns="http://www.w3.org/2000/svg">
<g id="Group">
<path id="Union" fill-rule="evenodd" clip-rule="evenodd" d="M17.0667 14.9364H61.8667C62.4325 14.9364 62.9751 15.1612 63.3752 15.5612C63.7752 15.9613 64 16.5039 64 17.0697V54.403C63.9999 54.6859 63.8875 54.9572 63.6875 55.1572L55.1541 63.6905C54.9541 63.8905 54.6829 64.003 54.4 64.003H8.53337C6.27097 64.0005 4.10196 63.1006 2.50221 61.5009C0.902447 59.9011 0.00258696 57.7321 4.60453e-05 55.4697V8.5364C-0.00372434 7.3933 0.224093 6.26128 0.669757 5.20862C1.11542 4.15597 1.76969 3.2045 2.59311 2.41161C3.4161 1.61832 4.38877 0.996806 5.45442 0.583291C6.52007 0.169777 7.65738 -0.0274619 8.80004 0.00307368C11.051 0.131864 13.1658 1.12282 14.7053 2.77012C16.2447 4.41741 17.0904 6.59441 17.0667 8.84893V14.9364ZM2.639 6.04001C2.3049 6.82986 2.13296 7.6788 2.13338 8.5364V49.8313C2.93292 48.9214 3.91737 48.1925 5.021 47.6933C6.12464 47.194 7.32208 46.936 8.53337 46.9364C9.74783 46.9186 10.9493 47.1881 12.0398 47.7229C13.1303 48.2577 14.079 49.0426 14.8086 50.0137L14.9334 50.0489V8.84893C14.9622 7.14732 14.334 5.50008 13.1793 4.24986C12.0246 2.99963 10.4324 2.24266 8.73391 2.13641C7.87672 2.10953 7.02288 2.25521 6.22311 2.56479C5.42333 2.87437 4.69393 3.34153 4.07823 3.93852C3.46253 4.53551 2.9731 5.25016 2.639 6.04001ZM4.00976 50.9461C2.8099 52.146 2.13507 53.7728 2.13338 55.4697C2.13507 57.1666 2.8099 58.7934 4.00976 59.9933C5.20963 61.1932 6.83651 61.868 8.53337 61.8697H53.3333V56.1801C53.3342 55.4262 53.6341 54.7033 54.1672 54.1702C54.7003 53.6371 55.4231 53.3372 56.1771 53.3364H61.8667V17.0697H17.0667V50.0084C17.0726 50.4637 16.934 50.9091 16.6709 51.2807C16.4077 51.6523 16.0336 51.931 15.6022 52.0766C15.1619 52.2295 14.6846 52.239 14.2386 52.1037C13.7927 51.9684 13.4011 51.6953 13.12 51.3236C12.5909 50.6091 11.8984 50.0317 11.1004 49.6396C10.3025 49.2475 9.42228 49.0521 8.53337 49.0697C6.83651 49.0714 5.20963 49.7462 4.00976 50.9461ZM55.4667 60.3614L60.3584 55.4697H56.1771C55.9887 55.47 55.8082 55.5449 55.6751 55.6781C55.5419 55.8112 55.467 55.9918 55.4667 56.1801V60.3614ZM44.8 28.802V32.002C45.9316 32.002 47.0168 32.4515 47.817 33.2517C48.6171 34.0518 49.0666 35.1371 49.0666 36.2687V49.0686C49.0666 49.6344 48.8419 50.1771 48.4418 50.5771C48.0417 50.9772 47.4991 51.202 46.9333 51.202H42.6666C42.2938 51.2008 41.9279 51.1017 41.6055 50.9145C41.2831 50.7273 41.0156 50.4585 40.8298 50.1353H27.4368C27.251 50.4585 26.9835 50.7273 26.6611 50.9145C26.3388 51.1017 25.9728 51.2008 25.6 51.202H21.3333C20.7675 51.202 20.2249 50.9772 19.8248 50.5771C19.4247 50.1771 19.2 49.6344 19.2 49.0686V36.2687C19.2 35.1371 19.6495 34.0518 20.4497 33.2517C21.2498 32.4515 22.3351 32.002 23.4667 32.002V28.802C23.4683 27.1051 24.1432 25.4782 25.343 24.2784C26.5429 23.0785 28.1698 22.4037 29.8666 22.402H38.4C40.0968 22.4037 41.7237 23.0785 42.9236 24.2784C44.1234 25.4782 44.7983 27.1051 44.8 28.802ZM21.3333 36.2687V49.0686H25.6V36.2687C25.6 35.7029 25.3752 35.1602 24.9751 34.7602C24.5751 34.3601 24.0324 34.1353 23.4667 34.1353C22.9009 34.1353 22.3582 34.3601 21.9582 34.7602C21.5581 35.1602 21.3333 35.7029 21.3333 36.2687ZM40.5333 38.1407C38.4411 37.6105 36.2916 37.34 34.1333 37.3353C31.975 37.3385 29.8253 37.6086 27.7333 38.1396V40.5353H40.5333V38.1407ZM40.5333 48.002V42.6686H27.7333V48.002H40.5333ZM27.7013 35.9487C31.9315 34.9531 36.3351 34.9531 40.5653 35.9487C40.6169 35.261 40.8352 34.5963 41.2013 34.012C41.5674 33.4277 42.0704 32.9414 42.6666 32.5951V28.802C42.6666 27.6704 42.2171 26.5852 41.417 25.785C40.6168 24.9848 39.5316 24.5353 38.4 24.5353H29.8666C28.7351 24.5353 27.6498 24.9848 26.8497 25.785C26.0495 26.5852 25.6 27.6704 25.6 28.802V32.5951C26.1963 32.9414 26.6992 33.4277 27.0653 34.012C27.4315 34.5963 27.6497 35.261 27.7013 35.9487ZM43.2915 34.7602C42.8914 35.1602 42.6666 35.7029 42.6666 36.2687V49.0686H46.9333V36.2687C46.9333 35.7029 46.7085 35.1602 46.3085 34.7602C45.9084 34.3601 45.3658 34.1353 44.8 34.1353C44.2342 34.1353 43.6916 34.3601 43.2915 34.7602ZM52.579 49.3811C52.7791 49.181 53.0504 49.0686 53.3333 49.0686H54.4V41.602H53.3333C53.0235 41.602 52.7175 41.5345 52.4364 41.4043C52.1554 41.2741 51.906 41.0843 51.7057 40.8479C51.5055 40.6116 51.3591 40.3345 51.2767 40.0359C51.1943 39.7373 51.178 39.4244 51.2288 39.1188L51.9402 34.8521C52.0219 34.3532 52.2785 33.8998 52.6642 33.5729C53.0498 33.2461 53.5393 33.0673 54.0448 33.0687H56.8885C57.394 33.0673 57.8834 33.2461 58.2691 33.5729C58.6548 33.8998 58.9114 34.3532 58.993 34.8521L59.7045 39.1188C59.7553 39.4244 59.7389 39.7373 59.6566 40.0359C59.5742 40.3345 59.4278 40.6116 59.2275 40.8479C59.0272 41.0843 58.7779 41.2741 58.4968 41.4043C58.2158 41.5345 57.9097 41.602 57.6 41.602H56.5333V49.0686H57.6C57.8829 49.0686 58.1542 49.181 58.3542 49.3811C58.5542 49.5811 58.6666 49.8524 58.6666 50.1353C58.6666 50.4182 58.5542 50.6895 58.3542 50.8896C58.1542 51.0896 57.8829 51.202 57.6 51.202H53.3333C53.0504 51.202 52.7791 51.0896 52.579 50.8896C52.379 50.6895 52.2666 50.4182 52.2666 50.1353C52.2666 49.8524 52.379 49.5811 52.579 49.3811ZM56.8885 35.202H54.0448L53.3333 39.4687H57.6L56.8885 35.202Z" fill="url(#paint0_linear_4161_2044)"/>
</g>
<defs>
<linearGradient id="paint0_linear_4161_2044" x1="61.5015" y1="-0.038983" x2="-3.4992" y2="60.8399" gradientUnits="userSpaceOnUse">
<stop stop-color="#713D00"/>
<stop offset="1" stop-color="#FF8900"/>
</linearGradient>
</defs>
</svg>
