<svg width="64" height="62" viewBox="0 0 64 62" fill="none" xmlns="http://www.w3.org/2000/svg">
<g id="Group">
<path id="Union" fill-rule="evenodd" clip-rule="evenodd" d="M61.0978 59.3438V1.59669C61.0978 1.01392 60.621 0.537109 60.0382 0.537109H42.5976C42.0148 0.537109 41.538 1.01392 41.538 1.59669V7.20117H4.41895C3.83618 7.20117 3.35938 7.67798 3.35938 8.26075V31.8359H1.05958C0.47681 31.8359 0 32.3127 0 32.8955V39.1788C0 39.7616 0.47681 40.2384 1.05958 40.2384H5.03125V59.3438H1.05958C0.47681 59.3438 0 59.8206 0 60.4033C0 60.9861 0.47681 61.4629 1.05958 61.4629H62.9389C63.5216 61.4629 63.9984 60.9861 63.9984 60.4033C63.9984 59.8206 63.5216 59.3438 62.9389 59.3438H61.0978ZM10.9331 59.3438H12.7238V40.2384H10.9331V59.3438ZM18.6256 59.3438H20.4057V40.2384H18.6256V59.3438ZM26.3075 59.3438H27.9648V40.2384H26.3075V59.3438ZM33.8667 59.3438H41.538V40.2384H33.8667V59.3438ZM54.3351 40.2384H43.6572V59.333H58.9786V2.65626H43.6572V31.8359H54.3457C54.9285 31.8359 55.4053 32.3127 55.4053 32.8955V39.1788C55.3947 39.7616 54.9285 40.2384 54.3351 40.2384ZM53.2861 33.9551H42.6454C42.6295 33.9558 42.6136 33.9562 42.5976 33.9562C42.5849 33.9562 42.5723 33.9559 42.5597 33.9555H4.41895C4.40922 33.9555 4.39953 33.9554 4.38986 33.9551H2.11915V38.1192H53.2861V33.9551ZM30.084 59.3436H31.7475V40.2395H30.084V59.3436ZM41.5359 31.8359H5.47853V9.32033H41.5359V31.8359ZM15.6906 26.2848C15.4363 26.2848 15.1714 26.1895 14.9701 25.9987C14.8684 25.9042 14.7864 25.7905 14.7287 25.6642C14.671 25.5379 14.6388 25.4015 14.6339 25.2627C14.629 25.124 14.6514 24.9856 14.7 24.8555C14.7486 24.7255 14.8224 24.6063 14.9171 24.5047L22.0798 16.8228C22.4825 16.3884 23.15 16.3672 23.5738 16.7698C23.9977 17.1725 24.0295 17.84 23.6268 18.2638L16.4641 25.9457C16.2522 26.1683 15.9661 26.2848 15.6906 26.2848ZM23.8705 23.8266C23.6162 23.8266 23.3513 23.7312 23.15 23.5405C23.0484 23.4459 22.9663 23.3323 22.9087 23.206C22.851 23.0797 22.8187 22.9432 22.8138 22.8045C22.8089 22.6657 22.8314 22.5274 22.88 22.3973C22.9286 22.2672 23.0023 22.148 23.097 22.0465L30.2598 14.3646C30.6624 13.9407 31.3299 13.909 31.7538 14.3116C32.1776 14.7142 32.2094 15.3818 31.8068 15.8056L24.644 23.4875C24.5473 23.5967 24.4281 23.6836 24.2945 23.7421C24.161 23.8006 24.0163 23.8295 23.8705 23.8266ZM25.5023 27.8636C25.248 27.8636 24.9831 27.7682 24.7818 27.5775C24.6801 27.4829 24.5981 27.3692 24.5404 27.243C24.4827 27.1167 24.4505 26.9802 24.4456 26.8415C24.4406 26.7027 24.4631 26.5644 24.5117 26.4343C24.5603 26.3042 24.6341 26.185 24.7288 26.0835L28.8717 21.6333C29.2744 21.2094 29.9419 21.1777 30.3657 21.5803C30.7896 21.9829 30.8213 22.6505 30.4187 23.0743L26.2758 27.5245C26.0638 27.747 25.7884 27.8636 25.5023 27.8636ZM7.1504 59.3436H8.81394V40.2394H7.1504V59.3436ZM14.8429 59.3436H16.5065V40.2394H14.8429V59.3436ZM22.5249 59.3436H24.1884V40.2394H22.5249V59.3436Z" fill="url(#paint0_linear_3939_1658)"/>
</g>
<defs>
<linearGradient id="paint0_linear_3939_1658" x1="61.5" y1="0.500001" x2="-0.500131" y2="61.5" gradientUnits="userSpaceOnUse">
<stop stop-color="#713D00"/>
<stop offset="1" stop-color="#FF8900"/>
</linearGradient>
</defs>
</svg>
